<?xml version="1.0" encoding="iso-8859-1"?>
<!-- Generator: Adobe Illustrator 17.1.0, SVG Export Plug-In . SVG Version: 6.00 Build 0)  -->
<!DOCTYPE svg PUBLIC "-//W3C//DTD SVG 1.1//EN" "http://www.w3.org/Graphics/SVG/1.1/DTD/svg11.dtd">
<svg version="1.1" id="Capa_1" xmlns="http://www.w3.org/2000/svg"  x="0px" y="0px"
	 viewBox="0 0 92.008 92.008" style="enable-background:new 0 0 92.008 92.008;" xml:space="preserve">
<g>
	<path d="M46.004,21.672c5.975,0,10.836-4.861,10.836-10.836S51.979,0,46.004,0c-5.975,0-10.835,4.861-10.835,10.836
		S40.029,21.672,46.004,21.672z"/>
	<path d="M68.074,54.008L59.296,26.81c-0.47-1.456-2.036-2.596-3.566-2.596h-1.312H53.48H38.526h-0.938h-1.312
		c-1.53,0-3.096,1.14-3.566,2.596l-8.776,27.198c-0.26,0.807-0.152,1.623,0.297,2.24s1.193,0.971,2.041,0.971h2.25
		c1.53,0,3.096-1.14,3.566-2.596l2.5-7.75v10.466v0.503v29.166c0,2.757,2.243,5,5,5h0.352c2.757,0,5-2.243,5-5V60.842h2.127v26.166
		c0,2.757,2.243,5,5,5h0.352c2.757,0,5-2.243,5-5V57.842v-0.503v-10.47l2.502,7.754c0.47,1.456,2.036,2.596,3.566,2.596h2.25
		c0.848,0,1.591-0.354,2.041-0.971S68.334,54.815,68.074,54.008z"/>
</g>
<g>
</g>
<g>
</g>
<g>
</g>
<g>
</g>
<g>
</g>
<g>
</g>
<g>
</g>
<g>
</g>
<g>
</g>
<g>
</g>
<g>
</g>
<g>
</g>
<g>
</g>
<g>
</g>
<g>
</g>
</svg>
